<svg aria-hidden="true" style="position: absolute; width: 0; height: 0; overflow: hidden;" version="1.1"
    xmlns="http://www.w3.org/2000/svg" xmlns:xlink="http://www.w3.org/1999/xlink">
    <defs>
        <symbol id="icon-Vector-3" viewBox="0 0 373 32">
            <path fill="#fff" style="fill: var(--color1, #fff)"
                d="M371.334 27.36c-1.009 0-2.018 1.008-2.018 2.016 0 1.26 1.009 2.016 2.018 2.016s2.018-1.008 2.018-2.016c0-1.259-0.756-2.016-2.018-2.016zM299.442 31.392h9.082v-0.756l-1.009-0.252c-1.009-0.252-1.261-0.755-1.261-2.016v-12.093h2.017c1.262 0 2.018 0.252 2.018 3.024l0.253 5.795c0.252 5.039 1.765 6.55 4.288 6.55s3.279-1.763 3.279-4.283v-1.008h-1.009v0.755c0 1.764-0.252 2.772-0.756 2.772s-0.505-0.505-0.756-2.521l-0.253-4.031c-0.252-5.291-1.009-7.055-5.045-7.811 3.785-1.008 6.054-3.779 6.054-7.558 0-5.040-4.036-7.559-7.82-7.559h-15.388v0.756l0.757 0.252c1.514 0.252 1.765 1.26 1.765 4.787v18.142c0 4.032-1.009 6.048-3.783 6.048-2.271 0-3.532-1.009-3.532-5.545v-21.418c0-1.261 0.505-1.513 1.514-1.764l1.261-0.252v-0.757h-9.333v0.756l1.009 0.252c1.009 0.252 1.262 0.503 1.262 1.764v21.165c0 4.787 2.774 7.307 6.811 7.307 4.288 0 6.306-2.519 6.306-7.558v-19.653c0-2.521 0.505-3.276 2.523-3.276 1.514 0 2.27 0.503 2.27 2.016v25.197c0 1.259-0.505 1.763-1.261 2.016l-1.009 0.252v0.755h-0.253v-0.252zM360.236 3.424c0-1.261 0.505-1.764 1.261-1.764l1.261-0.252v-0.757h-9.332v0.756l1.008 0.252c1.009 0.252 1.262 0.503 1.262 1.764v25.449c0 1.26-0.505 1.763-1.766 1.763-1.513 0-1.765-0.503-2.522-3.275l-5.803-27.212h-1.765l-5.55 26.205c-0.505 3.023-1.009 3.527-2.27 4.032l-0.757 0.251v0.757h6.307v-0.757l-1.009-0.252c-1.262-0.252-1.766-1.008-1.009-4.284l3.279-16.629 3.532 17.89c0.505 2.519 0.505 3.023-1.514 3.527l-1.009 0.252v0.756h23.964v-10.331h-0.756c-0.505 4.787-1.514 9.070-5.297 9.070h-1.766l0.253-27.212zM345.857 23.077v-1.26h-6.054l-0.252 1.259h6.306zM320.631 3.927v21.669c0 3.275 0 4.787-1.514 5.039l-0.756 0.253v0.755h6.559v-0.755c-2.775-0.505-2.775-1.513-2.775-4.788v-20.66l-1.009-1.007 11.1 27.212h1.765v-25.198c0-3.779 0-4.535 1.765-5.039l0.505-0.252v-0.757h-6.811v0.757l0.757 0.252c2.27 0.503 2.27 1.26 2.27 4.787v15.622l0.505-0.252-8.324-21.419h-6.306v0.757l0.505 0.252c0.505 0.252 1.009 1.008 1.765 2.771zM306.254 1.156h1.765c1.765 0 3.532 1.259 3.532 7.055 0 6.048-1.262 6.55-3.785 6.55h-1.513v-13.605zM275.983 15.518c0 12.85-1.009 14.866-3.532 14.866-2.27 0-3.279-1.763-3.279-14.613 0-12.347 1.009-14.363 3.279-14.363 2.523-0.252 3.532 1.763 3.532 14.11zM281.028 15.77c0-8.566-2.774-15.621-8.324-15.621s-8.324 7.055-8.324 15.622c0 8.565 2.774 15.621 8.324 15.621 5.55 0.252 8.324-6.803 8.324-15.622zM261.604 3.424c0-1.261 0.253-1.764 1.262-1.764l1.009-0.252v-0.757h-9.333v0.756l1.009 0.252c1.009 0.252 1.514 0.503 1.514 1.764v21.92c0 3.024-0.253 5.545-2.523 5.545-1.514 0-2.523-1.008-2.523-2.016 0.252-1.511 2.523-1.26 2.774-3.527 0.253-1.513-1.009-2.268-1.765-2.519-1.514-0.253-3.027 1.007-3.027 3.275 0 3.024 2.018 5.795 5.297 5.795 3.785 0 6.559-2.519 6.559-7.307l-0.253-21.165zM110.506 3.424c0-1.261 0.505-1.764 1.261-1.764l1.262-0.252v-0.757h-9.333v0.756l1.009 0.252c1.009 0.252 1.261 0.503 1.261 1.764v25.449c0 1.26-0.505 1.763-1.765 1.763-1.515 0-1.766-0.503-2.523-3.275l-5.803-27.212h-1.765l-5.549 26.205c-0.505 3.023-1.009 3.527-2.271 4.032l-0.757 0.251v0.757h6.308v-0.757l-1.009-0.252c-1.261-0.252-1.765-1.008-1.009-4.284l3.28-16.629 3.531 17.89c0.505 2.519 0.505 3.023-1.514 3.527l-1.009 0.252v0.756h24.217v-10.331h-0.756c-0.505 4.787-1.514 9.070-5.298 9.070h-1.765v-27.212zM236.38 1.156h1.009c2.774 0 3.783 4.535 4.036 9.071h0.756v-10.331h-16.397v10.331h0.757c0.252-4.788 1.261-9.071 4.036-9.071h1.009v26.96c0 1.26-0.505 1.764-1.262 2.016l-1.261 0.252v0.756h9.585v-0.756l-1.514-0.252c-0.756-0.252-1.261-0.503-1.261-1.763l0.505-27.213zM215.695 15.77h1.514c2.018 0 2.523 0.757 3.027 5.796h0.756v-12.347h-0.756c-0.505 3.779-1.009 5.542-3.027 5.542h-1.514v-13.354h3.027c3.532 0 4.288 4.285 4.793 9.072h0.756v-10.332h-15.387v0.755l1.009 0.253c1.009 0.252 1.261 1.008 1.261 2.016v25.197c0 1.259-0.505 1.763-1.261 2.016l-1.009 0.251v0.757h15.891v-10.332h-0.505c-0.505 4.787-1.009 9.071-5.044 9.071h-3.027l-0.505-14.362zM198.794 15.77h1.514c2.018 0 2.523 0.757 3.027 5.796h0.757v-12.347h-0.757c-0.505 3.779-1.009 5.542-3.027 5.542h-1.514v-13.354h3.027c3.532 0 4.288 4.537 4.793 9.072h0.757v-10.332h-15.892v0.755l1.514 0.253c1.009 0.252 1.262 1.008 1.262 2.016v25.197c0 1.259-0.505 1.763-1.262 2.016l-1.009 0.251v0.757h15.892v-10.332h-0.757c-0.505 4.787-1.009 9.071-5.044 9.071h-3.027v-14.11h-0.253v-0.253zM180.127 1.156h1.262c1.765 0 3.532 1.259 3.532 7.055 0 5.795-1.262 6.55-3.785 6.55h-1.009v-13.605zM173.316 31.392h9.082v-0.756l-1.009-0.252c-1.009-0.252-1.262-0.755-1.262-2.016v-12.093h1.766c1.261 0 2.018 0.503 2.018 3.024l0.252 5.795c0.253 5.039 1.765 6.55 4.288 6.55s3.28-1.763 3.28-4.283v-1.008h-1.009v0.755c0 1.764-0.253 2.772-0.757 2.772s-0.505-0.505-0.756-2.521l-0.253-4.031c-0.252-5.543-1.009-7.055-5.044-7.811 3.783-1.008 6.053-3.779 6.053-7.558 0-5.040-4.036-7.559-7.82-7.559h-8.576v0.756l1.009 0.252c1.009 0.252 1.261 0.503 1.261 1.763v25.198c0 1.259-0.505 1.763-1.261 2.016l-1.009 0.251v1.008h-0.253v-0.252zM166.506 1.156h1.009c2.774 0 3.783 4.535 4.036 9.071h0.756v-10.331h-16.396v10.331h0.756c0.253-4.788 1.261-9.071 4.036-9.071h1.009v26.96c0 1.26-0.505 1.764-1.262 2.016l-1.261 0.252v0.756h9.585v-0.756l-1.261-0.252c-1.261-0.252-1.261-1.26-1.261-2.016v-26.96h0.252zM156.163 23.329c0-9.071-10.090-11.59-10.090-18.645 0-1.513 0.505-3.527 2.774-3.527 3.279 0 4.541 4.283 5.045 9.323h0.756v-10.331h-0.505c-0.252 1.008-0.505 1.511-1.261 1.511-1.009 0-1.514-1.511-4.036-1.511-3.783 0-6.306 3.275-6.306 7.307 0 7.559 10.090 10.835 10.090 18.142 0 3.275-1.514 5.039-3.532 5.039-3.026 0-5.044-3.527-5.549-9.323h-0.757v10.331h0.505c0.505-1.511 1.009-1.511 1.514-1.511 0.757 0 1.766 1.764 4.288 1.764 3.532-0.505 7.063-3.78 7.063-8.567zM126.398 3.424c0-1.261 0.505-1.764 1.261-1.764l1.262-0.252v-0.757h-9.333v0.756l1.008 0.252c1.009 0.252 1.262 0.503 1.262 1.764v25.197c0 1.259-0.505 1.763-1.262 2.016l-1.008 0.252v0.755h14.63v-10.331h-0.757c-0.505 4.787-1.514 9.071-5.297 9.071h-1.765v-26.959zM96.38 23.077v-1.26h-6.054l-0.252 1.259h6.306zM70.144 31.392h2.018l4.288-22.426h-0.503l4.541 22.426h1.515l5.549-26.205c0.505-2.771 1.009-3.779 2.018-4.032l0.757-0.252v-0.754h-6.307v0.755l1.009 0.253c1.261 0.252 1.765 1.007 1.009 4.283l-3.532 17.638h0.505l-3.531-18.645c-0.253-1.764-0.506-3.276 1.008-3.529l1.009-0.252v-0.755h-8.576v0.753l0.503 0.252c1.010 0.253 1.010 0.756 1.515 2.521l1.513 6.803-0.252-4.032-3.027 16.378h0.505l-3.531-18.141c-0.506-1.764-0.506-3.276 1.008-3.529l0.757-0.252v-0.755h-8.829v0.755l0.756 0.252c0.757 0.253 1.262 0.505 1.765 3.024l4.541 27.465zM45.931 15.77h1.513c2.018 0 2.523 0.757 3.027 5.796h0.757v-12.347h-0.757c-0.505 3.779-1.009 5.542-3.027 5.542h-1.513v-13.354h3.026c3.532 0 4.288 4.537 4.794 9.072h0.756v-10.332h-15.389v0.755l1.009 0.253c1.009 0.252 1.262 1.008 1.262 2.016v25.197c0 1.259-0.505 1.763-1.262 2.016l-1.009 0.251v0.757h16.146v-10.332h-0.757c-0.505 4.787-1.009 9.071-5.045 9.071h-3.026v-14.11h-0.505v-0.253zM17.425 31.392h9.081v-0.756l-1.009-0.252c-0.757-0.252-1.261-0.755-1.261-2.016v-12.345h6.811v12.347c0 1.259-0.505 1.763-1.262 2.016l-1.009 0.251v0.757h9.082v-0.757l-1.009-0.252c-1.009-0.252-1.262-0.755-1.262-2.016v-25.197c0-1.259 0.506-1.763 1.262-1.763l1.009-0.252v-0.757h-9.082v0.757l1.262 0.252c0.757 0.252 1.261 0.503 1.261 1.763v11.59h-6.811v-11.591c0-1.259 0.505-1.511 1.262-1.763l1.008-0.252v-0.757h-9.333v0.757l1.010 0.252c1.008 0.252 1.261 0.503 1.261 1.763v25.198c0 1.259-0.505 1.763-1.261 2.016l-1.010 0.251v0.757zM10.613 1.156h1.009c2.775 0 3.785 4.535 4.036 9.071h0.757v-10.331h-16.397v10.331h1.009c0.252-4.788 1.261-9.071 4.036-9.071h1.009v26.96c0 1.26-0.505 1.764-1.262 2.016l-1.261 0.252v0.756h9.585v-0.756l-1.514-0.252c-0.757-0.252-1.261-0.503-1.261-1.763l0.252-27.213z">
            </path>
        </symbol>
        <symbol id="icon-logo-orange" viewBox="0 0 105 32">
            <path fill="#f90" style="fill: var(--color2, #f90)"
                d="M64.653 24.561c-6.055 4.469-14.832 6.845-22.392 6.845-10.595 0-20.135-3.917-27.353-10.434-0.567-0.513-0.061-1.212 0.62-0.816 7.789 4.533 17.422 7.262 27.37 7.262 6.71 0 14.087-1.393 20.876-4.271 1.024-0.435 1.883 0.674 0.88 1.414z">
            </path>
            <path fill="#f90" style="fill: var(--color2, #f90)"
                d="M67.171 21.684c-0.774-0.991-5.118-0.469-7.070-0.237-0.591 0.071-0.684-0.446-0.15-0.819 3.467-2.434 9.145-1.731 9.806-0.917 0.664 0.823-0.175 6.516-3.423 9.233-0.499 0.417-0.975 0.194-0.752-0.356 0.73-1.827 2.366-5.912 1.59-6.904z">
            </path>
            <path fill="#221f1f" style="fill: var(--color3, #221f1f)"
                d="M60.239 3.432c0.001 0.353 0.273 0.594 0.612 0.594l5.54 0.002-6.361 9.128c-0.389 0.584-0.395 1.24-0.395 1.625v2.399c0 0.347 0.386 0.746 0.754 0.548 3.608-1.916 7.938-1.729 11.201-0.019 0.4 0.209 0.782-0.195 0.782-0.541v-2.525c-0.034-0.34-0.145-0.689-0.562-0.922-1.852-1.040-4.010-1.347-6.047-1.299l5.49-7.841c0.509-0.704 0.795-1.148 0.8-1.489v-2.029c0-0.35-0.273-0.596-0.611-0.596l-10.602 0.001c-0.007-0-0.013-0-0.020-0-0.322 0-0.583 0.261-0.583 0.583 0 0.006 0 0.012 0 0.017v2.366zM81.179 0.161c4.786 0 7.375 4.11 7.375 9.336 0 5.049-2.858 9.057-7.375 9.057-4.696 0-7.257-4.111-7.257-9.232 0-5.156 2.589-9.161 7.257-9.161zM81.208 3.54c-2.379 0-2.529 3.239-2.529 5.26s-0.029 6.339 2.5 6.339c2.499 0 2.618-3.483 2.618-5.608 0-1.393-0.059-3.065-0.482-4.39-0.361-1.148-1.083-1.601-2.107-1.601zM51.788 10.299v-0.698c-2.332 0-4.797 0.5-4.797 3.248 0 1.396 0.723 2.339 1.962 2.339 0.904 0 1.719-0.559 2.232-1.466 0.633-1.117 0.603-2.165 0.603-3.422zM55.040 18.163c-0.213 0.192-0.603 0.198-0.762 0.075-1.102-0.852-1.849-2.149-1.849-2.149-1.771 1.804-3.025 2.347-5.317 2.347-2.716 0-4.829-1.679-4.829-5.029 0-2.618 1.419-4.399 3.441-5.271 1.749-0.77 4.194-0.909 6.065-1.118 0 0 0.155-2.021-0.392-2.758-0.426-0.571-1.146-0.838-1.81-0.838-1.196-0.006-2.352 0.646-2.582 1.898-0.065 0.357-0.33 0.659-0.608 0.628l-3.089-0.337c-0.28-0.039-0.493-0.276-0.493-0.563 0-0.039 0.004-0.077 0.012-0.114l-0.001 0.004c0.719-3.792 4.143-4.938 7.214-4.938 1.568 0 3.62 0.419 4.858 1.607 1.568 1.466 1.418 3.42 1.418 5.551v5.025c0 1.513 0.627 2.175 1.217 2.989 0.206 0.296 0.252 0.643-0.010 0.857-0.659 0.553-2.482 2.136-2.482 2.136zM9.504 10.299v-0.698c-2.331 0-4.796 0.5-4.796 3.248 0 1.396 0.723 2.339 1.962 2.339 0.904 0 1.719-0.559 2.232-1.466 0.633-1.117 0.602-2.165 0.602-3.422zM12.756 18.163c-0.213 0.192-0.602 0.198-0.761 0.075-1.103-0.852-1.849-2.149-1.849-2.149-1.771 1.804-3.025 2.347-5.318 2.347-2.714-0.001-4.828-1.68-4.828-5.030 0-2.618 1.419-4.399 3.439-5.271 1.75-0.77 4.195-0.909 6.065-1.118 0 0 0.157-2.021-0.392-2.758-0.425-0.571-1.146-0.838-1.809-0.838-1.198-0.006-2.353 0.646-2.582 1.898-0.066 0.357-0.33 0.659-0.608 0.628l-3.088-0.337c-0.28-0.037-0.493-0.275-0.493-0.562 0-0.040 0.004-0.079 0.012-0.116l-0.001 0.004c0.718-3.791 4.142-4.937 7.214-4.937 1.568 0 3.62 0.419 4.858 1.607 1.568 1.466 1.418 3.42 1.418 5.551v5.025c0 1.513 0.627 2.175 1.216 2.989 0.207 0.296 0.253 0.643-0.010 0.857-0.659 0.553-2.481 2.136-2.481 2.136zM22.189 8.835c0-1.917-0.090-4.564 2.227-4.564 2.288 0 1.988 2.717 1.988 4.564l0.003 8.776c0 0.316 0.256 0.575 0.579 0.593h3.222c0.004 0 0.009 0 0.014 0 0.331 0 0.6-0.265 0.608-0.594v-8.776c0-0.941-0.029-2.334 0.302-3.17s1.144-1.359 1.927-1.359c0.933 0 1.656 0.314 1.897 1.428 0.15 0.662 0.090 2.405 0.090 3.101l0.002 8.776c0 0.316 0.254 0.575 0.578 0.593h3.221c0.004 0 0.010 0 0.015 0 0.331 0 0.6-0.265 0.607-0.594v-0.001l0.004-10.447c0-1.777 0.21-3.797-0.815-5.191-0.902-1.254-2.377-1.811-3.733-1.811-1.896 0-3.671 0.976-4.455 3.066-0.904-2.091-2.168-3.066-4.185-3.066-1.987 0-3.462 0.976-4.244 3.066h-0.061v-2.114c0-0 0-0.001 0-0.001 0-0.333-0.27-0.602-0.602-0.602-0 0-0.001 0-0.001 0h-3.010c0 0 0 0 0 0-0.332 0-0.601 0.269-0.601 0.601 0 0 0 0.001 0 0.001v-0 16.491c0 0.332 0.269 0.601 0.601 0.601h3.221c0 0 0 0 0 0 0.332 0 0.602-0.269 0.602-0.601v-8.768zM95.392 17.602c0 0 0 0.001 0 0.001 0 0.333-0.27 0.602-0.602 0.602h-3.221c-0.332-0.001-0.601-0.27-0.601-0.602 0-0 0-0.001 0-0.001v0-16.49c0-0.333 0.27-0.603 0.601-0.603h2.978c0.349 0 0.603 0.281 0.603 0.472v2.523h0.062c0.903-2.264 2.167-3.344 4.395-3.344 1.447 0 2.861 0.523 3.764 1.951 0.845 1.323 0.845 3.552 0.845 5.155v10.417c-0.046 0.297-0.3 0.522-0.607 0.522-0.004 0-0.009-0-0.013-0h-3.233c-0.294-0.014-0.532-0.234-0.573-0.518l-0-0.003 0.005-10.002c0-3.347-1.282-3.445-2.021-3.445-0.861 0-1.554 0.673-1.858 1.3-0.45 1.011-0.523 2.044-0.523 3.159v8.907z">
            </path>
        </symbol>
        <symbol id="icon-lamp" viewBox="0 0 32 32">
            <path stroke-linejoin="miter" stroke-linecap="butt" stroke-miterlimit="4" stroke-width="0.4051"
                d="M21.463 0.642h-10.927c-5.604 0-10.146 4.488-10.146 10.024v10.795c0 5.536 4.543 10.024 10.147 10.024h10.927c5.604 0 10.146-4.488 10.146-10.024v-10.795c0-5.536-4.543-10.024-10.147-10.024z">
            </path>
            <path fill="none" stroke="#fff" style="stroke: var(--color1, #fff)" stroke-linejoin="round"
                stroke-linecap="round" stroke-miterlimit="4" stroke-width="0.638"
                d="M12.594 21.256h6.493M13.521 22.876h4.638M17.231 24.495h-2.782M19.059 19.637c0-0.871 0.218-1.729 0.636-2.498l1.373-2.537c0.008-0.015 0.017-0.029 0.024-0.044l0.008-0.017h-0.003c0.275-0.564 0.436-1.228 0.437-1.929v-0c0-2.778-2.549-5.030-5.694-5.030s-5.694 2.252-5.694 5.030c0 0.685 0.157 1.335 0.437 1.929h-0.002l0.008 0.016c0.007 0.015 0.016 0.030 0.025 0.045l1.372 2.536c0.399 0.722 0.635 1.583 0.635 2.499v0">
            </path>
        </symbol>
        <symbol id="icon-Frame-one" viewBox="0 0 32 32">
            <path fill="none" stroke="#fff" style="stroke: var(--color1, #fff)" stroke-linejoin="miter"
                stroke-linecap="butt" stroke-miterlimit="4" stroke-width="0.4051"
                d="M21.463 0.642h-10.927c-5.604 0-10.146 4.488-10.146 10.024v10.795c0 5.536 4.543 10.024 10.147 10.024h10.927c5.604 0 10.146-4.488 10.146-10.024v-10.795c0-5.536-4.543-10.024-10.147-10.024z">
            </path>
            <path fill="none" stroke="#fff" style="stroke: var(--color1, #fff)" stroke-linejoin="round"
                stroke-linecap="round" stroke-miterlimit="4" stroke-width="0.638"
                d="M22.104 22.095c-3.36 3.32-8.809 3.32-12.169 0-1.556-1.53-2.521-3.658-2.521-6.011s0.964-4.481 2.519-6.010l0.001-0.001c3.36-3.321 8.809-3.321 12.169 0 1.556 1.53 2.52 3.658 2.52 6.011s-0.964 4.481-2.519 6.010l-0.001 0.001z">
            </path>
            <path fill="none" stroke="#fff" style="stroke: var(--color1, #fff)" stroke-linejoin="round"
                stroke-linecap="round" stroke-miterlimit="4" stroke-width="0.638"
                d="M18.627 20.205c-0.334 0.334-0.731 0.604-1.173 0.791l-0.024 0.009c-0.422 0.18-0.913 0.285-1.429 0.285-0.507 0-0.99-0.101-1.43-0.284l0.025 0.009c-0.467-0.193-0.867-0.461-1.203-0.793l0 0c-0.335-0.331-0.606-0.725-0.793-1.164l-0.009-0.024c-0.176-0.41-0.278-0.887-0.278-1.388 0-0.51 0.106-0.996 0.297-1.435l-0.009 0.023c0.199-0.461 0.473-0.854 0.809-1.182l0.001-0.001c0.668-0.649 1.58-1.049 2.586-1.049 0.006 0 0.011 0 0.017 0h-0.001c1.012 0.002 1.928 0.409 2.596 1.067l-0-0c0.663 0.653 1.075 1.56 1.080 2.563v0.001c0 0.003 0 0.006 0 0.009 0 1.001-0.406 1.907-1.062 2.562l-0 0z">
            </path>
            <path fill="none" stroke="#fff" style="stroke: var(--color1, #fff)" stroke-linejoin="round"
                stroke-linecap="round" stroke-miterlimit="4" stroke-width="0.638" d="M16.019 16.415v2.429"></path>
            <path fill="none" stroke="#fff" style="stroke: var(--color1, #fff)" stroke-linejoin="round"
                stroke-linecap="round" stroke-miterlimit="4" stroke-width="0.638"
                d="M16.889 11.621c-0.222 0.216-0.526 0.348-0.861 0.348-0.002 0-0.005 0-0.007-0h0c-0.337-0.001-0.642-0.137-0.864-0.357l0 0c-0.221-0.217-0.358-0.519-0.36-0.853v-0c0-0.001 0-0.003 0-0.004 0-0.333 0.135-0.634 0.352-0.852l-0 0c0.222-0.216 0.526-0.348 0.861-0.348 0.002 0 0.004 0 0.006 0h-0c0.324 0.002 0.635 0.13 0.864 0.356 0.221 0.217 0.358 0.519 0.36 0.853v0c0 0.001 0 0.003 0 0.004 0 0.333-0.135 0.634-0.352 0.852l0-0z">
            </path>
        </symbol>
        <symbol id="icon-Frame-two" viewBox="0 0 32 32">
            <path fill="none" stroke="#2468ff" style="stroke: var(--color4, #2468ff)" stroke-linejoin="round"
                stroke-linecap="round" stroke-miterlimit="4" stroke-width="0.8101"
                d="M23.668 19.064c0-1.86-1.506-3.369-3.363-3.369h-3.671l-0.509-6.595c-0.051-0.594-0.546-1.057-1.15-1.057-0.635 0-1.149 0.512-1.154 1.146v0l0.010 13.244-2.341-2.050c-0.435-0.383-1.009-0.616-1.637-0.616-0.594 0-1.14 0.209-1.567 0.557l0.005-0.004s4.103 5.015 7.038 6.406">
            </path>
            <path fill="none" stroke="#2468ff" style="stroke: var(--color4, #2468ff)" stroke-linejoin="round"
                stroke-linecap="round" stroke-miterlimit="4" stroke-width="0.8101"
                d="M11.106 11.369v-3.597c0-0 0-0.001 0-0.001 0-1.221 0.989-2.21 2.209-2.211h3.314c1.22 0.001 2.209 0.99 2.209 2.21 0 0.001 0 0.002 0 0.003v-0 3.597">
            </path>
            <path fill="none" stroke="#2468ff" style="stroke: var(--color4, #2468ff)" stroke-linejoin="miter"
                stroke-linecap="butt" stroke-miterlimit="4" stroke-width="0.8101"
                d="M21.463 0.39h-10.927c-5.604 0-10.146 4.543-10.146 10.147v10.927c0 5.604 4.543 10.146 10.147 10.146h10.927c5.604 0 10.146-4.543 10.146-10.147v-10.926c0-5.604-4.543-10.146-10.147-10.146z">
            </path>
        </symbol>
        <symbol id="icon-item" viewBox="0 0 100 32">
            <path fill="#00b68c" style="fill: var(--color5, #00b68c)" d="M13.196 12.866h5.938v5.938h-5.938z"></path>
            <path fill="#fff" style="fill: var(--color1, #fff)"
                d="M16.819 17.155h-0.419v-2.781l-0.841 0.309v-0.379l1.195-0.448h0.065v3.299z"></path>
            <path fill="#999" style="fill: var(--color6, #999)"
                d="M21.706 16.051h11.876v0.33h-11.876zM35.959 12.866h5.938v5.938h-5.938z"></path>
            <path fill="#fff" style="fill: var(--color1, #fff)"
                d="M40.033 17.155h-2.152v-0.3l1.136-1.262c0.169-0.191 0.284-0.346 0.347-0.464 0.065-0.12 0.097-0.244 0.097-0.372 0-0.172-0.052-0.312-0.156-0.422s-0.242-0.165-0.415-0.165c-0.208 0-0.369 0.059-0.485 0.178-0.114 0.117-0.172 0.281-0.172 0.492h-0.417c0-0.302 0.097-0.546 0.291-0.733 0.195-0.186 0.456-0.28 0.782-0.28 0.305 0 0.546 0.081 0.724 0.242 0.178 0.159 0.266 0.372 0.266 0.638 0 0.323-0.206 0.708-0.618 1.155l-0.88 0.954h1.648v0.34z">
            </path>
            <path fill="#999" style="fill: var(--color6, #999)"
                d="M44.201 16.051h11.876v0.33h-11.876zM58.392 12.866h5.938v5.938h-5.938z"></path>
            <path fill="#fff" style="fill: var(--color1, #fff)"
                d="M60.921 15.31h0.313c0.197-0.003 0.352-0.055 0.465-0.155s0.169-0.237 0.169-0.408c0-0.385-0.192-0.577-0.575-0.577-0.18 0-0.325 0.052-0.433 0.156-0.107 0.102-0.16 0.238-0.16 0.408h-0.417c0-0.26 0.095-0.476 0.284-0.647 0.191-0.173 0.433-0.259 0.726-0.259 0.31 0 0.553 0.082 0.728 0.246s0.264 0.392 0.264 0.684c0 0.143-0.047 0.281-0.14 0.415s-0.221 0.237-0.371 0.298l-0.006 0.002c0.18 0.057 0.32 0.152 0.417 0.284 0.099 0.133 0.149 0.294 0.149 0.485 0 0.295-0.096 0.529-0.289 0.702s-0.443 0.259-0.751 0.259c-0.308 0-0.559-0.083-0.753-0.251s-0.289-0.387-0.289-0.66h0.419c0 0.173 0.056 0.311 0.169 0.415s0.264 0.155 0.453 0.155c0.201 0 0.356-0.052 0.462-0.158s0.16-0.256 0.16-0.453c0-0.191-0.059-0.338-0.176-0.44s-0.286-0.155-0.507-0.158h-0.313v-0.34z">
            </path>
            <path fill="#999" style="fill: var(--color6, #999)"
                d="M66.696 16.051h11.876v0.33h-11.876zM80.825 12.866h5.938v5.938h-5.938z"></path>
            <path fill="#fff" style="fill: var(--color1, #fff)"
                d="M84.178 16.052h0.456v0.341h-0.456v0.762h-0.419v-0.762h-1.495v-0.246l1.47-2.275h0.444v2.181zM82.737 16.052h1.022v-1.61l-0.050 0.090-0.972 1.52z">
            </path>
        </symbol>
        <symbol id="icon-facebook" viewBox="0 0 32 32">
            <path fill="#fff" style="fill: var(--color1, #fff)"
                d="M17.092 32h-15.326c-0.976 0-1.766-0.791-1.766-1.766v0-28.467c0-0.977 0.79-1.766 1.766-1.766h28.467c0.977 0 1.766 0.79 1.766 1.766v28.467c0 0.977-0.79 1.766-1.766 1.766h-8.154v-12.393h4.16l0.622-4.829h-4.782v-3.083c0-1.399 0.388-2.352 2.393-2.352l2.558-0.001v-4.32c-0.443-0.059-1.961-0.19-3.727-0.19-3.687 0-6.211 2.251-6.211 6.384v3.562h-4.171v4.829h4.171v12.393z">
            </path>
        </symbol>
        <symbol id="icon-Frame" viewBox="0 0 32 32">
            <path fill="#fff" style="fill: var(--color1, #fff)"
                d="M16 0c-8.834 0-16 7.163-16 16 0 6.55 3.94 12.181 9.579 14.655-0.045-1.116-0.007-2.46 0.277-3.675 0.308-1.298 2.059-8.718 2.059-8.718s-0.511-1.022-0.511-2.532c0-2.371 1.376-4.142 3.086-4.142 1.455 0 2.159 1.093 2.159 2.403 0 1.461-0.933 3.65-1.413 5.677-0.401 1.699 0.85 3.083 2.525 3.083 3.031 0 5.073-3.893 5.073-8.508 0-3.505-2.362-6.13-6.657-6.13-4.853 0-7.876 3.618-7.876 7.66 0 1.397 0.41 2.379 1.054 3.139 0.297 0.352 0.337 0.491 0.229 0.894-0.075 0.291-0.252 1.003-0.325 1.283-0.107 0.404-0.435 0.551-0.8 0.4-2.237-0.912-3.278-3.36-3.278-6.112 0-4.544 3.834-9.998 11.435-9.998 6.11 0 10.13 4.423 10.13 9.167 0 6.277-3.488 10.965-8.635 10.965-1.725 0-3.35-0.932-3.908-1.991 0 0-0.928 3.685-1.124 4.397-0.339 1.233-1.003 2.467-1.611 3.426 1.44 0.426 2.959 0.657 4.533 0.657 8.837 0 16-7.163 16-16s-7.163-16-16-16z">
            </path>
        </symbol>
        <symbol id="icon-bird" viewBox="0 0 32 32">
            <path fill="#fff" style="fill: var(--color1, #fff)"
                d="M32 5.824c-1.175 0.535-2.443 0.897-3.77 1.059 1.364-0.852 2.386-2.145 2.873-3.675l0.013-0.048c-1.199 0.742-2.596 1.308-4.087 1.616l-0.084 0.014c-1.188-1.306-2.894-2.123-4.791-2.125h-0c-3.623 0-6.563 3.014-6.563 6.731 0 0.529 0.057 1.041 0.169 1.534-5.456-0.281-10.293-2.958-13.533-7.036-0.559 0.971-0.889 2.134-0.889 3.375 0 0.004 0 0.009 0 0.013v-0.001c-0 0.009-0 0.019-0 0.030 0 2.301 1.147 4.334 2.9 5.559l0.022 0.015c-1.1-0.037-2.12-0.344-3.007-0.856l0.031 0.017v0.082c0 3.264 2.263 5.984 5.269 6.602-0.511 0.15-1.098 0.237-1.706 0.237-0.009 0-0.017-0-0.026-0h0.001c-0.422 0-0.836-0.041-1.236-0.119 0.836 2.673 3.259 4.621 6.133 4.672-2.207 1.796-5.052 2.883-8.151 2.883-0.001 0-0.002 0-0.003 0h0c-0.53 0-1.054-0.030-1.567-0.092 2.833 1.893 6.317 3.021 10.064 3.022h0c12.077 0 18.679-10.256 18.679-19.153 0-0.292-0.006-0.586-0.017-0.873 1.283-0.949 2.397-2.133 3.274-3.484z">
            </path>
        </symbol>
        <symbol id="icon-logo" viewBox="0 0 70 32">
            <path
                d="M25.845 30.311c-1.526 1.057-3.418 1.689-5.456 1.689-0.010 0-0.021-0-0.031-0h0.002c-0.015 0-0.032 0-0.049 0-2.565 0-4.901-0.977-6.657-2.58l0.008 0.007c-0.142-0.128 0-0.298 0.148-0.202 1.906 1.125 4.201 1.79 6.65 1.79 1.867 0 3.643-0.386 5.254-1.083l-0.086 0.033c0.255-0.107 0.461 0.165 0.217 0.346z">
            </path>
            <path
                d="M26.464 29.603c-0.191-0.246-1.255-0.118-1.737-0.059-0.142 0-0.163-0.106-0.037-0.202 0.852-0.597 2.245-0.426 2.404-0.224s-0.042 1.599-0.836 2.275c-0.122 0.101-0.239 0.048-0.186-0.085 0.18-0.453 0.577-1.46 0.392-1.705zM24.765 25.106v-0.586c-0-0.002-0-0.003-0-0.005 0-0.079 0.064-0.144 0.144-0.144 0.002 0 0.003 0 0.005 0h2.583c0.002-0 0.004-0 0.005-0 0.060 0 0.112 0.038 0.133 0.091l0 0.001c0.006 0.016 0.010 0.034 0.010 0.053 0 0.002-0 0.003-0 0.005v-0 0.501c0 0.085-0.069 0.192-0.196 0.368l-1.345 1.934c0.049-0.003 0.107-0.005 0.165-0.005 0.482 0 0.935 0.12 1.333 0.332l-0.015-0.007c0.080 0.045 0.134 0.127 0.138 0.223l0 0v0.624c0 0.085-0.095 0.186-0.191 0.133-0.398-0.211-0.87-0.335-1.371-0.335s-0.973 0.124-1.388 0.343l0.016-0.008c-0.090 0.048-0.185-0.048-0.185-0.133v-0.576c-0.001-0.013-0.001-0.029-0.001-0.045 0-0.131 0.036-0.253 0.099-0.357l-0.002 0.003 1.567-2.265h-1.355c-0.002 0-0.004 0-0.006 0-0.059 0-0.109-0.036-0.131-0.087l-0-0.001c-0.007-0.016-0.011-0.035-0.011-0.055 0-0 0-0.001 0-0.001v0zM29.9 25.132c-0.582 0-0.619 0.8-0.619 1.295s0 1.561 0.614 1.561 0.641-0.857 0.641-1.379c0.012-0.359-0.029-0.718-0.121-1.066-0.045-0.228-0.243-0.397-0.481-0.397-0.017 0-0.034 0.001-0.050 0.003l0.002-0 0.015-0.016zM29.9 24.296c1.17 0 1.806 1.017 1.806 2.301s-0.699 2.233-1.806 2.233c-1.106 0-1.779-1.012-1.779-2.275s0.635-2.26 1.779-2.26zM23.489 28.734c-0.026 0.017-0.058 0.027-0.093 0.027s-0.066-0.010-0.093-0.027l0.001 0c-0.179-0.151-0.33-0.327-0.45-0.524l-0.005-0.009c-0.287 0.357-0.724 0.584-1.213 0.584-0.032 0-0.063-0.001-0.094-0.003l0.004 0c-0.019 0.001-0.041 0.002-0.064 0.002-0.319 0-0.607-0.134-0.811-0.349l-0-0c-0.193-0.203-0.311-0.477-0.311-0.78 0-0.040 0.002-0.080 0.006-0.12l-0 0.005c-0-0.012-0.001-0.027-0.001-0.041 0-0.275 0.082-0.532 0.222-0.746l-0.003 0.005c0.151-0.23 0.363-0.409 0.615-0.514l0.009-0.003c0.441-0.152 0.949-0.25 1.478-0.271l0.011-0c0.005-0.044 0.008-0.096 0.008-0.148 0-0.193-0.038-0.377-0.106-0.544l0.003 0.010c-0.105-0.127-0.262-0.208-0.439-0.208-0.002 0-0.004 0-0.006 0h0c-0.014-0.001-0.029-0.002-0.045-0.002-0.287 0-0.527 0.199-0.59 0.466l-0.001 0.004c0 0.091-0.079 0.16-0.148 0.155l-0.757-0.059c-0.059-0.010-0.105-0.055-0.116-0.112l-0-0.001c-0.002-0.009-0.003-0.019-0.003-0.029s0.001-0.020 0.003-0.030l-0 0.001c0.174-0.933 1.016-1.215 1.768-1.215 0.431-0.016 0.854 0.124 1.191 0.394 0.381 0.362 0.344 0.848 0.344 1.369v1.241c0.003 0.275 0.111 0.539 0.302 0.735 0.026 0.027 0.042 0.064 0.042 0.104s-0.016 0.077-0.042 0.104l0-0-0.609 0.533-0.005-0.005zM22.695 26.794c0.005 0.047 0.008 0.101 0.008 0.155 0 0.251-0.058 0.489-0.161 0.701l0.004-0.010c-0.1 0.202-0.296 0.342-0.527 0.362l-0.002 0c-0.307 0-0.482-0.234-0.482-0.581 0-0.676 0.603-0.799 1.175-0.799v0.17h-0.016zM13.132 28.735c-0.026 0.017-0.058 0.027-0.093 0.027s-0.066-0.010-0.093-0.027l0.001 0c-0.179-0.151-0.33-0.327-0.451-0.524l-0.005-0.009c-0.294 0.357-0.735 0.583-1.23 0.583-0.025 0-0.051-0.001-0.076-0.002l0.004 0c-0.014 0.001-0.030 0.001-0.046 0.001-0.318 0-0.605-0.133-0.809-0.347l-0-0c-0.194-0.203-0.313-0.478-0.313-0.782 0-0.033 0.001-0.065 0.004-0.097l-0 0.004c-0-0.013-0.001-0.029-0.001-0.045 0-0.275 0.081-0.53 0.221-0.744l-0.003 0.005c0.15-0.233 0.369-0.413 0.624-0.516 0.44-0.152 0.949-0.25 1.478-0.272l0.011-0c0.005-0.043 0.007-0.093 0.007-0.143 0-0.194-0.040-0.38-0.111-0.548l0.003 0.009c-0.098-0.127-0.25-0.208-0.421-0.208-0.006 0-0.013 0-0.019 0l0.001-0c-0.015-0.001-0.032-0.002-0.049-0.002-0.286 0-0.525 0.2-0.586 0.467l-0.001 0.004c0 0.090-0.080 0.159-0.148 0.154l-0.758-0.080c-0.059-0.010-0.104-0.055-0.116-0.112l-0-0.001c-0.002-0.009-0.003-0.019-0.003-0.029s0.001-0.020 0.003-0.030l-0 0.001c0.175-0.933 1.017-1.215 1.768-1.215 0.020-0.001 0.044-0.001 0.069-0.001 0.425 0 0.815 0.149 1.121 0.398l-0.003-0.003c0.387 0.362 0.349 0.848 0.349 1.369v1.241c-0.002 0.27 0.094 0.532 0.27 0.735 0.027 0.026 0.044 0.063 0.044 0.104 0 0.020-0.004 0.040-0.012 0.057l0-0.001c-0.008 0.019-0.019 0.034-0.033 0.048l-0 0-0.609 0.533 0.011-0.005zM12.337 26.795c0.005 0.047 0.008 0.101 0.008 0.157 0 0.251-0.058 0.488-0.16 0.7l0.004-0.010c-0.101 0.201-0.296 0.341-0.526 0.362l-0.003 0c-0.302 0-0.477-0.234-0.477-0.581 0-0.676 0.603-0.799 1.175-0.799v0.17h-0.022zM15.44 26.438c0-0.474 0-1.123 0.529-1.123s0.482 0.665 0.482 1.123v2.164c0 0 0 0 0 0 0 0.077 0.061 0.14 0.137 0.144h0.789c0.002 0 0.004 0 0.006 0 0.060 0 0.111-0.035 0.134-0.086l0-0.001c0.008-0.017 0.012-0.036 0.013-0.057v-2.164c-0.003-0.046-0.005-0.1-0.005-0.154 0-0.224 0.029-0.44 0.083-0.647l-0.004 0.018c0.077-0.191 0.257-0.326 0.47-0.336l0.001-0c0.018-0.003 0.038-0.004 0.059-0.004 0.208 0 0.38 0.154 0.407 0.354l0 0.002c0.018 0.255 0.018 0.511 0 0.767v2.163c0.003 0.078 0.065 0.14 0.143 0.144h0.789c0.002 0 0.004 0 0.006 0 0.059 0 0.111-0.035 0.134-0.086l0-0.001c0.008-0.017 0.012-0.036 0.013-0.057v-2.579c0.015-0.097 0.024-0.208 0.024-0.322 0-0.349-0.083-0.678-0.231-0.969l0.006 0.012c-0.206-0.273-0.53-0.447-0.895-0.447-0.006 0-0.011 0-0.017 0h0.001c-0.010-0-0.021-0-0.032-0-0.239 0-0.46 0.074-0.642 0.201l0.004-0.002c-0.197 0.136-0.346 0.331-0.425 0.558-0.069-0.225-0.204-0.413-0.383-0.547l-0.003-0.002c-0.173-0.13-0.392-0.208-0.628-0.208-0.003 0-0.006 0-0.009 0h0c-0.235-0.010-0.466 0.059-0.658 0.196s-0.333 0.334-0.4 0.56v-0.533c-0.004-0.079-0.068-0.143-0.148-0.144h-0.683c-0.002-0-0.003-0-0.005-0-0.079 0-0.143 0.064-0.143 0.143 0 0 0 0.001 0 0.001v-0 4.065c-0 0.002-0 0.004-0 0.006 0 0.060 0.037 0.112 0.089 0.134l0.001 0c0.015 0.006 0.033 0.010 0.052 0.010 0.002 0 0.004-0 0.006-0h0.809c0 0 0.001 0 0.001 0 0.061 0 0.112-0.038 0.132-0.092l0-0.001c0.006-0.015 0.009-0.033 0.009-0.051 0-0.002-0-0.004-0-0.006v0-2.131l-0.021-0.016zM33.374 28.596c0 0.001 0 0.003 0 0.005 0 0.080-0.065 0.144-0.144 0.144-0.001 0-0.003-0-0.004-0h-0.788c-0 0-0 0-0.001 0-0.081 0-0.148-0.066-0.148-0.148 0-0 0-0.001 0-0.001v0-4.065c0.003-0.080 0.068-0.143 0.148-0.144h0.731c0.003-0 0.006-0 0.009-0 0.068 0 0.124 0.047 0.139 0.11l0 0.001v0.624c0.055-0.239 0.19-0.452 0.383-0.603s0.431-0.229 0.676-0.223c0.010-0 0.022-0.001 0.034-0.001 0.371 0 0.697 0.192 0.884 0.481l0.002 0.004c0.137 0.306 0.217 0.664 0.217 1.040 0 0.080-0.004 0.16-0.011 0.238l0.001-0.010v2.568c-0.008 0.072-0.069 0.128-0.143 0.128-0.002 0-0.004-0-0.006-0h-0.763c-0.072-0.002-0.13-0.057-0.137-0.127l-0-0.001v-2.467c0-0.826-0.318-0.847-0.498-0.847-0.205 0.012-0.377 0.139-0.454 0.317l-0.001 0.003c-0.082 0.202-0.13 0.436-0.13 0.681 0 0.034 0.001 0.068 0.003 0.101l-0-0.005v2.196zM2.61 28.734l-0.063-0.416c-0.186 0.163-0.4 0.291-0.63 0.379-0.202 0.085-0.436 0.136-0.682 0.138h-0.001c-0.020 0.001-0.043 0.002-0.066 0.002-0.322 0-0.616-0.124-0.835-0.328l0.001 0.001c-0.21-0.204-0.341-0.489-0.341-0.805 0-0.021 0.001-0.041 0.002-0.062l-0 0.003c-0.001-0.013-0.001-0.027-0.001-0.042 0-0.356 0.16-0.675 0.412-0.888l0.002-0.001c0.28-0.217 0.637-0.348 1.025-0.348 0.029 0 0.058 0.001 0.086 0.002l-0.004-0c0.358 0.006 0.702 0.056 1.029 0.145l-0.029-0.007v-0.533c0.003-0.025 0.005-0.055 0.005-0.084 0-0.201-0.076-0.385-0.201-0.524l0.001 0.001c-0.157-0.113-0.354-0.181-0.566-0.181-0.034 0-0.067 0.002-0.1 0.005l0.004-0c-0.501 0.007-0.979 0.098-1.423 0.26l0.030-0.010v-0.554c0.202-0.105 0.436-0.187 0.683-0.232l0.015-0.002c0.245-0.054 0.527-0.085 0.817-0.085 0.005 0 0.011 0 0.016 0h-0.001c0.394-0.033 0.787 0.078 1.106 0.314 0.224 0.22 0.364 0.526 0.364 0.865 0 0.033-0.001 0.066-0.004 0.099l0-0.004v2.893h-0.651zM1.419 28.238c0.418-0.017 0.798-0.169 1.099-0.413l-0.003 0.003v-0.81c-0.252-0.067-0.542-0.106-0.841-0.106h-0c-0.593 0-0.895 0.234-0.895 0.692-0.001 0.012-0.001 0.025-0.001 0.039 0 0.167 0.065 0.318 0.171 0.431l-0-0c0.115 0.103 0.267 0.167 0.435 0.167 0.015 0 0.029-0 0.043-0.001l-0.002 0h-0.005zM7.153 28.734v-2.707c0.019-0.222-0.043-0.443-0.174-0.623-0.12-0.123-0.288-0.2-0.473-0.2-0.020 0-0.039 0.001-0.058 0.003l0.003-0c-0.441 0.007-0.869 0.148-1.229 0.405v3.122h-0.789v-4.049h0.657l0.079 0.448c0.432-0.346 0.985-0.558 1.587-0.565h0.002c0.026-0.002 0.056-0.003 0.086-0.003 0.307 0 0.586 0.119 0.794 0.313l-0.001-0.001c0.19 0.212 0.306 0.494 0.306 0.803 0 0.036-0.002 0.072-0.005 0.108l0-0.005v2.973l-0.784-0.022zM40.633 28.579c-0.296 0.151-0.646 0.24-1.016 0.24-0.015 0-0.030-0-0.045-0l0.002 0c-0.037 0.003-0.080 0.004-0.123 0.004-0.51 0-0.971-0.205-1.307-0.537l0 0c-0.315-0.433-0.504-0.976-0.504-1.563s0.189-1.13 0.51-1.571l-0.005 0.008c0.339-0.332 0.805-0.537 1.318-0.537 0.045 0 0.090 0.002 0.134 0.005l-0.006-0c0.004-0 0.009-0 0.013-0 0.359 0 0.698 0.082 1.001 0.229l-0.014-0.006v0.565c-0.26-0.095-0.561-0.155-0.874-0.165l-0.005-0c-0.034-0.003-0.074-0.005-0.114-0.005-0.329 0-0.627 0.132-0.844 0.346l0-0c-0.186 0.259-0.297 0.581-0.297 0.93 0 0.048 0.002 0.095 0.006 0.141l-0-0.006v0.101c-0.031 0.379 0.074 0.758 0.297 1.066 0.214 0.213 0.508 0.345 0.834 0.345 0.036 0 0.072-0.002 0.108-0.005l-0.005 0c0.337-0.006 0.658-0.064 0.959-0.167l-0.022 0.007v0.575zM43.101 28.851c-0.031 0.002-0.068 0.003-0.104 0.003-0.516 0-0.981-0.218-1.309-0.566l-0.001-0.001c-0.321-0.436-0.514-0.984-0.514-1.577s0.193-1.141 0.52-1.585l-0.005 0.007c0.367-0.349 0.864-0.564 1.411-0.564s1.045 0.215 1.412 0.565l-0.001-0.001c0.321 0.436 0.514 0.984 0.514 1.577s-0.193 1.141-0.52 1.585l0.005-0.007c-0.328 0.349-0.793 0.567-1.309 0.567-0.035 0-0.070-0.001-0.104-0.003l0.005 0zM43.101 28.212c0.741 0 1.117-0.501 1.117-1.508s-0.376-1.497-1.117-1.497c-0.742 0-1.117 0.496-1.117 1.497s0.37 1.509 1.117 1.509zM51.123 28.734v-2.749c0.002-0.022 0.003-0.047 0.003-0.073 0-0.191-0.056-0.368-0.153-0.517l0.002 0.004c-0.105-0.119-0.259-0.194-0.429-0.194-0.017 0-0.033 0.001-0.050 0.002l0.002-0c-0.434 0.008-0.836 0.141-1.173 0.362l0.008-0.005c0.003 0.041 0.003 0.082 0 0.122v3.049h-0.784v-2.749c0.001-0.019 0.002-0.042 0.002-0.064 0-0.193-0.056-0.374-0.153-0.525l0.002 0.004c-0.105-0.119-0.258-0.194-0.429-0.194-0.017 0-0.033 0.001-0.050 0.002l0.002-0c-0.432 0.003-0.833 0.134-1.167 0.356l0.008-0.005v3.197h-0.784v-4.049h0.656l0.080 0.41c0.409-0.312 0.92-0.509 1.477-0.533l0.005-0c0.035-0.004 0.075-0.007 0.116-0.007 0.389 0 0.725 0.224 0.887 0.55l0.003 0.006c0.433-0.343 0.986-0.554 1.587-0.564l0.002-0c0.023-0.002 0.050-0.003 0.077-0.003 0.298 0 0.568 0.119 0.765 0.312l-0-0c0.204 0.255 0.302 0.58 0.27 0.906v2.973l-0.784-0.022zM53.066 30.375v-5.691h0.657l0.074 0.416c0.349-0.329 0.821-0.532 1.34-0.533h0c0.025-0.002 0.054-0.002 0.083-0.002 0.454 0 0.86 0.207 1.127 0.533l0.002 0.003c0.317 0.444 0.474 0.983 0.445 1.529 0.003 0.044 0.004 0.095 0.004 0.146 0 0.546-0.178 1.051-0.48 1.459l0.005-0.007c-0.279 0.361-0.712 0.592-1.199 0.592-0.016 0-0.032-0-0.048-0.001l0.002 0c-0.010 0-0.022 0-0.035 0-0.462 0-0.881-0.178-1.194-0.47l0.001 0.001v2.024h-0.784zM54.914 25.207c-0.401 0.005-0.769 0.142-1.063 0.371l0.004-0.003v2.222c0.301 0.242 0.673 0.376 1.059 0.383 0.731 0 1.091-0.495 1.091-1.481 0.004-0.045 0.006-0.097 0.006-0.15 0-0.36-0.101-0.696-0.275-0.983l0.005 0.008c-0.172-0.226-0.441-0.371-0.745-0.371-0.029 0-0.057 0.001-0.085 0.004l0.004-0zM60.124 28.733l-0.063-0.415c-0.186 0.163-0.4 0.291-0.63 0.379-0.203 0.085-0.44 0.135-0.687 0.138h-0.001c-0.019 0.001-0.041 0.002-0.063 0.002-0.323 0-0.618-0.124-0.838-0.328l0.001 0.001c-0.207-0.206-0.335-0.491-0.335-0.806 0-0.020 0.001-0.040 0.002-0.060l-0 0.003c-0.001-0.014-0.001-0.031-0.001-0.047 0-0.354 0.158-0.67 0.407-0.883l0.002-0.001c0.281-0.217 0.639-0.348 1.027-0.348 0.030 0 0.060 0.001 0.090 0.002l-0.004-0c0.358 0.005 0.702 0.056 1.029 0.145l-0.029-0.007v-0.533c0.002-0.023 0.004-0.050 0.004-0.077 0-0.204-0.076-0.39-0.2-0.531l0.001 0.001c-0.157-0.113-0.354-0.181-0.566-0.181-0.034 0-0.067 0.002-0.1 0.005l0.004-0c-0.503 0.006-0.982 0.098-1.427 0.26l0.030-0.010v-0.554c0.202-0.105 0.436-0.187 0.683-0.232l0.015-0.002c0.247-0.054 0.53-0.085 0.82-0.085 0.004 0 0.007 0 0.011 0h-0.001c0.040-0.003 0.086-0.005 0.133-0.005 0.368 0 0.709 0.12 0.984 0.323l-0.005-0.003c0.222 0.219 0.359 0.524 0.359 0.86 0 0.035-0.002 0.070-0.004 0.104l0-0.004v2.893h-0.646zM58.933 28.238c0.418-0.017 0.798-0.169 1.099-0.413l-0.004 0.003v-0.81c-0.252-0.067-0.542-0.106-0.841-0.106h-0c-0.598 0-0.895 0.234-0.895 0.692-0.001 0.013-0.002 0.029-0.002 0.045 0 0.164 0.063 0.313 0.166 0.425l-0-0c0.131 0.116 0.302 0.175 0.477 0.165zM64.657 28.734v-2.707c0.002-0.022 0.003-0.047 0.003-0.073 0-0.206-0.065-0.397-0.175-0.553l0.002 0.003c-0.12-0.123-0.288-0.2-0.473-0.2-0.020 0-0.039 0.001-0.058 0.003l0.002-0c-0.462 0.007-0.888 0.158-1.235 0.409l0.006-0.004v3.122h-0.784v-4.049h0.657l0.079 0.448c0.432-0.346 0.985-0.558 1.587-0.565h0.001c0.026-0.002 0.057-0.003 0.087-0.003 0.308 0 0.588 0.119 0.798 0.313l-0.001-0.001c0.211 0.244 0.317 0.562 0.296 0.884v2.974h-0.794zM69.857 24.685l-1.832 4.758c-0.097 0.301-0.268 0.573-0.498 0.788-0.209 0.166-0.47 0.251-0.736 0.24-0.004 0-0.009 0-0.013 0-0.216 0-0.422-0.041-0.612-0.115l0.011 0.004v-0.566c0.147 0.037 0.298 0.055 0.45 0.054 0.012 0.001 0.025 0.001 0.039 0.001 0.162 0 0.311-0.057 0.428-0.152l-0.001 0.001c0.143-0.15 0.247-0.333 0.302-0.532l0.154-0.405-1.621-4.087h0.842l1.159 3.314 1.117-3.314h0.81v0.010zM15.737 8.322h-13.454v-0.075c0.048-0.476 0.158-0.944 0.328-1.39 0.588-1.695 1.72-3.075 3.182-3.966l0.033-0.019c0.899-0.521 1.979-0.829 3.13-0.829 0.076 0 0.152 0.001 0.227 0.004l-0.011-0c0.88-0.005 1.752 0.163 2.568 0.496 0.81 0.329 1.505 0.783 2.094 1.345l-0.003-0.002c0.571 0.548 1.039 1.198 1.375 1.921l0.016 0.039c0.334 0.699 0.53 1.519 0.53 2.385 0 0.004 0 0.009 0 0.013v-0.001l-0.016 0.080zM9.292 0c-0.036-0.001-0.079-0.001-0.122-0.001-1.307 0-2.55 0.273-3.675 0.764l0.059-0.023c-1.149 0.514-2.127 1.213-2.94 2.069l-0.004 0.004c-0.816 0.867-1.471 1.896-1.911 3.032l-0.022 0.064c-0.429 1.124-0.678 2.423-0.678 3.781 0 0.038 0 0.076 0.001 0.114l-0-0.006c-0.001 0.042-0.001 0.091-0.001 0.14 0 1.383 0.245 2.708 0.694 3.935l-0.025-0.080c0.443 1.209 1.091 2.247 1.91 3.122l-0.005-0.005c0.82 0.862 1.811 1.553 2.919 2.020l0.057 0.021c1.104 0.462 2.387 0.73 3.732 0.73 0.047 0 0.094-0 0.14-0.001l-0.007 0c0.036 0 0.078 0.001 0.121 0.001 1.611 0 3.143-0.343 4.524-0.961l-0.070 0.028c1.432-0.677 2.602-1.709 3.427-2.984l0.019-0.032-1.668-1.412c-0.651 1.027-1.548 1.846-2.61 2.386l-0.038 0.017c-1.056 0.566-2.31 0.9-3.641 0.906h-0.002c-1.234 0.050-2.46-0.235-3.547-0.826-0.873-0.516-1.603-1.179-2.178-1.962l-0.014-0.020c-0.496-0.672-0.884-1.459-1.116-2.31l-0.012-0.050c-0.173-0.593-0.284-1.278-0.307-1.985l-0-0.013v-0.074h15.715v-1.657c-0.009-1.15-0.221-2.247-0.604-3.262l0.021 0.065c-0.394-1.087-0.96-2.022-1.675-2.822l0.007 0.008c-0.747-0.822-1.648-1.49-2.659-1.961l-0.051-0.021c-1.057-0.472-2.29-0.748-3.587-0.748-0.063 0-0.125 0.001-0.188 0.002l0.009-0v0.005zM36.498 8.323h-13.449v-0.075c0.048-0.476 0.158-0.944 0.328-1.39 0.278-0.796 0.653-1.486 1.121-2.102l-0.014 0.019c0.578-0.762 1.282-1.394 2.085-1.878l0.033-0.019c0.897-0.522 1.973-0.83 3.122-0.83 0.079 0 0.157 0.001 0.236 0.004l-0.011-0c0.878-0.005 1.749 0.163 2.563 0.496 0.821 0.325 1.524 0.779 2.121 1.345l-0.003-0.003c0.552 0.549 1.003 1.199 1.323 1.92l0.016 0.040c0.348 0.751 0.529 1.569 0.529 2.397v0.075zM30.059 0c-1.285-0.017-2.56 0.235-3.743 0.741-1.145 0.513-2.119 1.21-2.93 2.064l-0.004 0.004c-0.817 0.866-1.473 1.895-1.911 3.032l-0.022 0.064c-0.433 1.122-0.684 2.42-0.684 3.777 0 0.041 0 0.083 0.001 0.124l-0-0.006c-0 0.040-0.001 0.087-0.001 0.134 0 1.384 0.243 2.712 0.688 3.942l-0.026-0.081c0.447 1.209 1.096 2.246 1.916 3.122l-0.005-0.005c0.819 0.862 1.81 1.553 2.918 2.020l0.057 0.021c1.103 0.462 2.385 0.73 3.729 0.73 0.048 0 0.096-0 0.144-0.001l-0.007 0c0.036 0 0.078 0.001 0.121 0.001 1.611 0 3.143-0.343 4.524-0.961l-0.070 0.028c1.429-0.678 2.595-1.709 3.417-2.984l0.019-0.032-1.668-1.412c-0.656 1.032-1.562 1.851-2.636 2.386l-0.038 0.017c-1.056 0.566-2.31 0.9-3.641 0.906h-0.002c-1.235 0.050-2.461-0.235-3.548-0.826-0.872-0.516-1.602-1.179-2.178-1.962l-0.014-0.020c-0.493-0.672-0.875-1.46-1.101-2.311l-0.011-0.049c-0.173-0.593-0.284-1.278-0.307-1.985l-0-0.013v-0.074h15.736v-1.657c-0.004-1.148-0.21-2.246-0.583-3.263l0.021 0.066c-0.393-1.087-0.96-2.022-1.675-2.822l0.007 0.008c-0.747-0.821-1.646-1.488-2.654-1.96l-0.051-0.022c-1.059-0.472-2.294-0.747-3.594-0.747-0.060 0-0.12 0.001-0.18 0.002l0.009-0-0.025 0.005zM59.499 17.631c-1.069 0.014-2.129-0.197-3.113-0.618-0.896-0.392-1.705-0.96-2.377-1.673-0.641-0.69-1.149-1.513-1.478-2.422l-0.016-0.050c-0.325-0.902-0.513-1.942-0.513-3.026s0.188-2.125 0.533-3.090l-0.020 0.064c0.346-0.96 0.854-1.785 1.498-2.483l-0.004 0.005c0.658-0.695 1.448-1.257 2.331-1.65l0.046-0.018c0.92-0.391 1.99-0.618 3.113-0.618s2.193 0.227 3.167 0.638l-0.054-0.020c0.929 0.402 1.719 0.964 2.368 1.658l0.004 0.004c0.648 0.692 1.16 1.519 1.489 2.434l0.015 0.049c0.684 1.959 0.684 4.093 0 6.053-0.347 0.959-0.857 1.782-1.503 2.476l0.004-0.004c-0.658 0.698-1.448 1.262-2.331 1.655l-0.046 0.018c-0.983 0.422-2.044 0.633-3.113 0.618zM59.499 0c-0.019-0-0.042-0-0.065-0-1.395 0-2.727 0.272-3.944 0.766l0.070-0.025c-1.21 0.48-2.242 1.173-3.096 2.040l-0.001 0.001c-0.845 0.87-1.526 1.906-1.989 3.053l-0.023 0.064c-0.453 1.133-0.716 2.446-0.716 3.82 0 0.043 0 0.086 0.001 0.129l-0-0.007c-0 0.032-0.001 0.070-0.001 0.108 0 1.384 0.267 2.705 0.751 3.916l-0.025-0.071c0.486 1.211 1.167 2.246 2.014 3.119l-0.002-0.002c0.855 0.864 1.883 1.555 3.026 2.019l0.061 0.022c1.14 0.462 2.462 0.73 3.847 0.73 0.034 0 0.069-0 0.103-0l-0.005 0c0.032 0 0.070 0.001 0.109 0.001 1.376 0 2.689-0.268 3.89-0.755l-0.069 0.025c1.208-0.486 2.239-1.178 3.098-2.042l0-0c0.86-0.865 1.549-1.901 2.011-3.053l0.022-0.062c0.459-1.174 0.725-2.533 0.725-3.954s-0.266-2.78-0.751-4.030l0.026 0.076c-0.489-1.213-1.177-2.249-2.034-3.118l0.001 0.001c-0.862-0.857-1.894-1.545-3.041-2.008l-0.062-0.022c-1.132-0.462-2.446-0.731-3.822-0.731-0.037 0-0.075 0-0.112 0.001l0.006-0v-0.010zM41.513 19.192h2.282v-10.209c-0.007-0.885 0.116-1.767 0.365-2.616 0.248-0.82 0.636-1.531 1.141-2.141l-0.008 0.010c0.517-0.611 1.164-1.096 1.9-1.415l0.033-0.013c0.852-0.361 1.77-0.542 2.695-0.533v-2.132c-2.648 0.054-4.739 0.874-6.184 2.429-2.377 2.552-2.224 6.261-2.224 6.298v10.32z">
            </path>
        </symbol>
        <symbol id="icon-Frame-three" viewBox="0 0 32 32">
            <path stroke-linejoin="round" stroke-linecap="round" stroke-miterlimit="4" stroke-width="1.1111"
                d="M20.6 5.162c-0 2.56-2.076 4.635-4.636 4.635s-4.636-2.075-4.636-4.636c0-0 0-0 0-0v0c0-2.56 2.075-4.636 4.636-4.636s4.636 2.075 4.636 4.636v0z">
            </path>
            <path stroke-linejoin="round" stroke-linecap="round" stroke-miterlimit="4" stroke-width="1.1111"
                d="M0.526 31.177h30.878M23.436 28.371v-5.837c0-0.852-0.692-1.544-1.544-1.544h-11.854c-0.852 0-1.543 0.692-1.543 1.544v5.836">
            </path>
            <path stroke-linejoin="round" stroke-linecap="round" stroke-miterlimit="4" stroke-width="1.1111"
                d="M27.664 28.338c0.529-0.608 0.852-1.408 0.852-2.284 0-0.462-0.090-0.903-0.253-1.306l0.008 0.023-2.708-6.849c-0.93-2.306-3.149-3.904-5.742-3.905h-7.712c-2.593 0-4.813 1.598-5.728 3.863l-0.015 0.041-2.708 6.849c-0.155 0.38-0.244 0.821-0.244 1.282 0 0.876 0.323 1.676 0.856 2.289l-0.004-0.004">
            </path>
        </symbol>
        <symbol id="icon-Frame-four" viewBox="0 0 32 32">
            <path stroke-linejoin="round" stroke-linecap="round" stroke-miterlimit="4" stroke-width="1.1111"
                d="M28.804 11.703c0 6.172-5.941 11.177-13.272 11.177-7.329 0-13.271-5.004-13.271-11.177s5.942-11.177 13.271-11.177c7.331 0 13.272 5.004 13.272 11.177z">
            </path>
            <path stroke-linejoin="round" stroke-linecap="round" stroke-miterlimit="4" stroke-width="1.1111"
                d="M12.199 25.807l-3.381 5.597-2.027-5.157-6.165 1.694 3.38-5.595M18.866 25.807l3.382 5.597 2.027-5.157 6.166 1.694-3.381-5.595">
            </path>
        </symbol>
        <symbol id="icon-Frame-five" viewBox="0 0 32 32">
            <path fill="none" stroke="#231f20" style="stroke: var(--color7, #231f20)" stroke-linejoin="round"
                stroke-linecap="round" stroke-miterlimit="4" stroke-width="1.1111"
                d="M1.228 22.308v-21.538h22.274c0.625 0 1.175 0.588 1.351 1.445l1.796 10.794 3.327 1.733c0.447 0.355 0.725 1.028 0.725 1.76v5.805M15.964 22.308v-17.436M27.595 26.409h3.809M11.352 26.409h9.227M0.526 26.409h3.808">
            </path>
            <path fill="none" stroke="#231f20" style="stroke: var(--color7, #231f20)" stroke-linejoin="round"
                stroke-linecap="round" stroke-miterlimit="4" stroke-width="1.1111"
                d="M11.353 26.41c0 2.832-1.571 5.128-3.508 5.128s-3.509-2.296-3.509-5.128 1.572-5.128 3.509-5.128c1.938 0 3.508 2.296 3.508 5.128z">
            </path>
            <path
                d="M9.16 26.41c0 1.062-0.589 1.924-1.316 1.924s-1.316-0.862-1.316-1.924c0-1.061 0.589-1.923 1.316-1.923s1.316 0.862 1.316 1.923z">
            </path>
            <path fill="none" stroke="#231f20" style="stroke: var(--color7, #231f20)" stroke-linejoin="round"
                stroke-linecap="round" stroke-miterlimit="4" stroke-width="1.1111"
                d="M27.595 26.41c0 2.832-1.572 5.128-3.508 5.128s-3.509-2.296-3.509-5.128 1.572-5.128 3.509-5.128c1.938 0 3.508 2.296 3.508 5.128z">
            </path>
            <path
                d="M25.402 26.41c0 1.062-0.589 1.924-1.316 1.924s-1.316-0.862-1.316-1.924c0-1.061 0.589-1.923 1.316-1.923s1.316 0.862 1.316 1.923z">
            </path>
            <path fill="none" stroke="#231f20" style="stroke: var(--color7, #231f20)" stroke-linejoin="round"
                stroke-linecap="round" stroke-miterlimit="4" stroke-width="1.1111"
                d="M26.651 13.008h-6.812v-8.137h5.457"></path>
        </symbol>
        <symbol id="icon-Frame-six" viewBox="0 0 32 32">
            <path stroke-linejoin="round" stroke-linecap="round" stroke-miterlimit="4" stroke-width="1.1111"
                d="M4.036 3.68h-1.781c-0.955 0-1.729 0.886-1.729 1.98v0.004c0 3.949 1.688 7.591 4.31 9.968M27.895 3.68h1.78c0.954 0 1.728 0.886 1.728 1.98v0.004c0 3.949-1.688 7.591-4.31 9.968">
            </path>
            <path stroke-linejoin="round" stroke-linecap="round" stroke-miterlimit="4" stroke-width="1.1111"
                d="M8.26 30.185h15.412M15.964 21.297v8.889"></path>
        </symbol>
        <symbol id="icon-Group" viewBox="0 0 32 32">
            <path fill="none" stroke="#2468ff" style="stroke: var(--color4, #2468ff)" stroke-linejoin="miter"
                stroke-linecap="butt" stroke-miterlimit="4" stroke-width="0.8101"
                d="M21.463 0.39h-10.927c-5.604 0-10.146 4.543-10.146 10.147v10.927c0 5.604 4.543 10.146 10.147 10.146h10.927c5.604 0 10.146-4.543 10.146-10.147v-10.926c0-5.604-4.543-10.146-10.147-10.146z">
            </path>
            <path fill="none" stroke="#2468ff" style="stroke: var(--color4, #2468ff)" stroke-linejoin="round"
                stroke-linecap="round" stroke-miterlimit="4" stroke-width="0.8101"
                d="M8.973 14.46v-1.932c0-2.177 1.631-3.942 3.643-3.942h6.671c2.012 0 3.642 1.765 3.642 3.943v1.932M8.973 16.138v3.611c0 2.177 1.631 3.942 3.643 3.942h6.671c2.012 0 3.642-1.765 3.642-3.942v-3.611">
            </path>
            <path fill="none" stroke="#2468ff" style="stroke: var(--color4, #2468ff)" stroke-linejoin="round"
                stroke-linecap="round" stroke-miterlimit="4" stroke-width="0.8101"
                d="M10.738 12.55l-1.765 1.911-1.765-1.911M21.165 18.048l1.764-1.909 1.765 1.909"></path>
        </symbol>
        <symbol id="icon-Group-one" viewBox="0 0 32 32">
            <path fill="none" stroke="#2468ff" style="stroke: var(--color4, #2468ff)" stroke-linejoin="round"
                stroke-linecap="round" stroke-miterlimit="4" stroke-width="0.8101"
                d="M12.479 15.473l2.328 2.322 4.815-4.803"></path>
            <path fill="none" stroke="#2468ff" style="stroke: var(--color4, #2468ff)" stroke-linejoin="round"
                stroke-linecap="round" stroke-miterlimit="4" stroke-width="0.8101"
                d="M16.541 26.712c1.902-1.050 8.687-5.634 8.954-17.72 0.009-0.437-0.265-0.844-0.679-0.988-2.573-0.887-5.566-1.399-8.767-1.399h0.003c-3.2 0-6.193 0.513-8.767 1.399-0.415 0.143-0.689 0.55-0.679 0.988 0.267 12.086 7.052 16.67 8.953 17.719 0.142 0.080 0.311 0.128 0.491 0.128s0.35-0.047 0.496-0.13l-0.005 0.003z">
            </path>
            <path fill="none" stroke="#2468ff" style="stroke: var(--color4, #2468ff)" stroke-linejoin="miter"
                stroke-linecap="butt" stroke-miterlimit="4" stroke-width="0.8101"
                d="M21.463 0.39h-10.927c-5.604 0-10.146 4.543-10.146 10.147v10.927c0 5.604 4.543 10.146 10.147 10.146h10.927c5.604 0 10.146-4.543 10.146-10.147v-10.926c0-5.604-4.543-10.146-10.147-10.146z">
            </path>
        </symbol>
        <symbol id="icon-frame" viewBox="0 0 32 32">
            <path fill="none" stroke="#fefefe" style="stroke: var(--color8, #fefefe)" stroke-linejoin="miter"
                stroke-linecap="butt" stroke-miterlimit="4" stroke-width="0.6076"
                d="M10.537 0.39h10.927c5.604 0 10.146 4.543 10.146 10.147v10.927c0 5.603-4.543 10.146-10.147 10.146h-10.926c-5.604 0-10.147-4.544-10.147-10.147v-10.926c0-5.604 4.544-10.147 10.147-10.147z">
            </path>
            <path fill="none" stroke="#fefefe" style="stroke: var(--color8, #fefefe)" stroke-linejoin="miter"
                stroke-linecap="butt" stroke-miterlimit="4" stroke-width="0.6076"
                d="M18.721 10.268c-0.782-0.47-1.725-0.749-2.734-0.749-0.003 0-0.005 0-0.008 0h0c-0.994 0-1.926 0.269-2.725 0.738M20.725 8.408c-1.311-0.97-2.959-1.553-4.744-1.553-0.004 0-0.009 0-0.013 0h0.001c-0.004 0-0.008 0-0.013 0-1.768 0-3.402 0.572-4.728 1.541l0.023-0.016">
            </path>
            <path fill="none" stroke="#fefefe" style="stroke: var(--color8, #fefefe)" stroke-linejoin="miter"
                stroke-linecap="butt" stroke-miterlimit="4" stroke-width="0.6076"
                d="M18.035 24.755h-4.071c-2.115 0-3.829-1.715-3.829-3.829v-4.071c0-2.114 1.714-3.829 3.829-3.829h4.071c2.115 0 3.829 1.714 3.829 3.829v0 4.071c0 0 0 0 0 0 0 2.115-1.714 3.829-3.829 3.829-0 0-0 0-0 0h0z">
            </path>
            <path fill="none" stroke="#fefefe" style="stroke: var(--color8, #fefefe)" stroke-linejoin="miter"
                stroke-linecap="butt" stroke-miterlimit="4" stroke-width="0.6076"
                d="M14.287 18.89c0-0 0-0 0-0 0-0.946 0.767-1.713 1.713-1.713s1.713 0.767 1.713 1.713v0c0 0 0 0 0 0 0 0.946-0.767 1.713-1.713 1.713s-1.713-0.767-1.713-1.713v0z">
            </path>
        </symbol>
        <symbol id="icon-instagram" viewBox="0 0 32 32">
            <path fill="#fff" style="fill: var(--color1, #fff)"
                d="M16 0c-4.346 0-4.891 0.018-6.596 0.096-1.703 0.078-2.866 0.349-3.885 0.745-1.109 0.424-2.054 1.052-2.832 1.844l-0.001 0.001c-0.793 0.779-1.421 1.724-1.827 2.779l-0.018 0.054c-0.396 1.020-0.667 2.182-0.745 3.884-0.078 1.707-0.096 2.253-0.096 6.597s0.018 4.891 0.096 6.596c0.078 1.703 0.349 2.867 0.745 3.885 0.424 1.109 1.052 2.054 1.844 2.832l0.001 0.001c0.779 0.793 1.724 1.421 2.779 1.827l0.054 0.018c1.019 0.396 2.181 0.667 3.884 0.745 1.707 0.078 2.252 0.096 6.597 0.096s4.891-0.018 6.596-0.096c1.703-0.078 2.867-0.349 3.885-0.743 1.109-0.424 2.054-1.052 2.832-1.844l0.001-0.001c0.793-0.78 1.421-1.725 1.827-2.78l0.018-0.054c0.396-1.018 0.667-2.181 0.745-3.885 0.078-1.707 0.096-2.251 0.096-6.596s-0.018-4.891-0.096-6.596c-0.078-1.703-0.349-2.866-0.743-3.885-0.424-1.109-1.052-2.054-1.844-2.832l-0.001-0.001c-0.78-0.793-1.725-1.421-2.78-1.827l-0.054-0.018c-1.018-0.396-2.182-0.667-3.885-0.745-1.707-0.078-2.25-0.096-6.596-0.096zM16 2.883c4.272 0 4.779 0.016 6.465 0.093 1.561 0.071 2.407 0.332 2.972 0.551 0.747 0.29 1.28 0.637 1.839 1.197 0.56 0.56 0.907 1.092 1.197 1.839 0.22 0.564 0.48 1.411 0.551 2.972 0.077 1.686 0.093 2.193 0.093 6.465s-0.016 4.779-0.093 6.465c-0.071 1.561-0.332 2.407-0.551 2.972-0.29 0.747-0.637 1.28-1.197 1.839-0.503 0.518-1.118 0.926-1.805 1.186l-0.034 0.011c-0.564 0.22-1.411 0.48-2.972 0.551-1.686 0.077-2.192 0.093-6.465 0.093-4.272 0-4.779-0.016-6.465-0.093-1.561-0.071-2.407-0.332-2.972-0.551-0.747-0.29-1.28-0.637-1.839-1.197-0.518-0.504-0.926-1.118-1.186-1.805l-0.011-0.034c-0.22-0.564-0.48-1.411-0.551-2.972-0.077-1.686-0.093-2.193-0.093-6.465s0.016-4.779 0.093-6.465c0.071-1.561 0.332-2.407 0.551-2.972 0.29-0.747 0.637-1.28 1.197-1.839 0.504-0.518 1.118-0.926 1.805-1.186l0.034-0.011c0.564-0.22 1.411-0.48 2.972-0.551 1.686-0.077 2.193-0.093 6.465-0.093zM7.783 16c0-4.538 3.679-8.217 8.217-8.217s8.217 3.679 8.217 8.217v0c0 4.538-3.679 8.217-8.217 8.217s-8.217-3.679-8.217-8.217v0zM16 21.333c-2.946 0-5.333-2.388-5.333-5.333s2.388-5.333 5.333-5.333v0c2.946 0 5.333 2.388 5.333 5.333s-2.388 5.333-5.333 5.333v0zM24.541 9.379c1.060 0 1.92-0.86 1.92-1.92s-0.86-1.92-1.92-1.92v0c-1.060 0-1.92 0.86-1.92 1.92s0.86 1.92 1.92 1.92v0z">
            </path>
        </symbol>
        <symbol id="icon-linkedin" viewBox="0 0 34 32">
            <path fill="#fff" style="fill: var(--color1, #fff)"
                d="M4.035 7.762h-0.047c-2.421 0-3.989-1.619-3.989-3.671 0-2.091 1.615-3.677 4.082-3.677 2.465 0 3.982 1.581 4.030 3.671 0 2.051-1.565 3.677-4.077 3.677zM34.286 31.584h-7.577v-10.957c0-2.869-1.186-4.826-3.792-4.826-1.994 0-3.103 1.321-3.618 2.594-0.171 0.402-0.168 0.944-0.165 1.503v11.686h-7.506s0.097-19.409 0-21.174h7.507v3.323c0.443-1.454 2.842-3.527 6.67-3.527 4.75 0 8.481 3.046 8.481 9.603v11.774zM7.547 10.41h-6.682v21.174h6.682v-21.174z">
            </path>
        </symbol>
    </defs>
</svg>